<svg xmlns="http://www.w3.org/2000/svg" viewBox="0 0 64 64">
  <defs>
    <linearGradient id="fireGrad" x1="0" x2="0" y1="0" y2="1">
      <stop offset="0" stop-color="#ffcf4a"/>
      <stop offset="1" stop-color="#ff6b2d"/>
    </linearGradient>
  </defs>
  <path fill="url(#fireGrad)" d="M32 4c2 9-4 12-4 18 0 3 2 5 4 7 2-2 4-4 4-7 0-3-1-6-4-18zm-10 18c-6 6-10 12-10 20 0 12 10 22 20 22s20-10 20-22c0-8-4-14-10-20 1 10-2 13-10 18-8-5-11-8-10-18z"/>
  <path fill="#ffffff" fill-opacity="0.25" d="M32 36c-6 4-9 7-9 13 0 6 4 11 9 11s9-5 9-11c0-6-3-9-9-13z"/>
</svg>
